<svg width="26" height="26" viewBox="0 0 26 26" fill="none" xmlns="http://www.w3.org/2000/svg">
<path d="M7.7998 3.9C7.7998 3.54102 8.09082 3.25 8.4498 3.25H9.7498C10.1088 3.25 10.3998 3.54101 10.3998 3.9V6.5H7.7998V3.9Z" fill="white"/>
<path d="M15.6001 3.9C15.6001 3.54102 15.8911 3.25 16.2501 3.25H17.5501C17.9091 3.25 18.2001 3.54101 18.2001 3.9V6.5H15.6001V3.9Z" fill="white"/>
<path fill-rule="evenodd" clip-rule="evenodd" d="M11.05 5.19995H14.95V7.15H18.85V5.19995H21.45C22.168 5.19995 22.75 5.78198 22.75 6.49995V21.45C22.75 22.1679 22.168 22.75 21.45 22.75H4.55C3.83203 22.75 3.25 22.1679 3.25 21.45V6.49995C3.25 5.78198 3.83203 5.19995 4.55 5.19995H7.15V7.15H11.05V5.19995ZM21.45 8.45H4.55V21.45H21.45V8.45Z" fill="white"/>
<rect x="5.8501" y="9.75" width="2.6" height="2.6" fill="white"/>
<rect x="5.8501" y="13.65" width="2.6" height="2.6" fill="white"/>
<rect x="5.8501" y="17.55" width="2.6" height="2.6" fill="white"/>
<rect x="9.75" y="9.75" width="2.6" height="2.6" fill="white"/>
<rect x="9.75" y="13.65" width="2.6" height="2.6" fill="white"/>
<rect x="9.75" y="17.55" width="2.6" height="2.6" fill="white"/>
<rect x="13.6499" y="9.75" width="2.6" height="2.6" fill="white"/>
<rect x="13.6499" y="13.65" width="2.6" height="2.6" fill="white"/>
<rect x="13.6499" y="17.55" width="2.6" height="2.6" fill="white"/>
<rect x="17.5498" y="9.75" width="2.6" height="2.6" fill="white"/>
<rect x="17.5498" y="13.65" width="2.6" height="2.6" fill="white"/>
<rect x="17.5498" y="17.55" width="2.6" height="2.6" fill="white"/>
</svg>
