<svg width="70" height="16" viewBox="0 0 70 16" fill="none" xmlns="http://www.w3.org/2000/svg">
<path d="M55.0773 5.79124C54.8533 5.55884 54.6062 5.37251 54.3383 5.23223C53.93 5.01658 53.4673 4.90771 52.9648 4.90771C52.096 4.90771 51.3443 5.22386 50.7267 5.84777C50.1112 6.47168 49.7971 7.23377 49.7971 8.11101C49.7971 8.98825 50.107 9.77756 50.7183 10.4015C51.3297 11.0275 52.0792 11.3457 52.9439 11.3457C53.4296 11.3457 53.886 11.2431 54.2964 11.04C54.5748 10.9019 54.8345 10.7197 55.0752 10.4915V11.1971H56.1786V5.05636H55.0752V5.79124H55.0773ZM54.5183 6.61195C54.9266 7.02859 55.1255 7.53316 55.1255 8.15707C55.1255 8.56115 55.0354 8.92754 54.8554 9.24786C54.6774 9.5661 54.4178 9.82153 54.087 10.0079C53.4233 10.3826 52.6298 10.3868 51.985 10.0079C51.6647 9.81943 51.403 9.55145 51.2124 9.21018C51.0219 8.86891 50.9235 8.50671 50.9235 8.13613C50.9235 7.76556 51.0198 7.39917 51.2082 7.06209C51.3988 6.72501 51.6563 6.46121 51.9745 6.27487C52.2949 6.08854 52.6487 5.99432 53.0255 5.99432C53.6222 5.99432 54.1101 6.19531 54.5162 6.61195H54.5183Z" fill="white"/>
<path d="M61.4609 5.26587C61.0966 5.02719 60.6758 4.90576 60.211 4.90576C59.7462 4.90576 59.3316 5.01254 58.9443 5.2219C58.6931 5.35799 58.4544 5.54223 58.2325 5.77044V5.05232H57.1187V11.1951H58.2325V8.89418C58.2325 8.15302 58.266 7.64008 58.333 7.37C58.4377 6.96592 58.647 6.63722 58.9757 6.36295C59.3002 6.09286 59.6562 5.96096 60.0644 5.96096C60.412 5.96096 60.6946 6.04471 60.904 6.21011C61.1134 6.37551 61.2578 6.62884 61.3332 6.9722C61.3855 7.17947 61.4106 7.61286 61.4106 8.2598V11.1972H62.5245V8.04206C62.5245 7.22553 62.4407 6.63303 62.2711 6.23314C62.0974 5.82906 61.8252 5.50455 61.463 5.26587H61.4609Z" fill="white"/>
<path d="M68.4098 2.82861V5.79114C68.1858 5.55874 67.9388 5.37241 67.6708 5.23213C67.2625 5.01648 66.7998 4.90761 66.2973 4.90761C65.4285 4.90761 64.6769 5.22376 64.0592 5.84767C63.4437 6.47158 63.1296 7.23367 63.1296 8.11091C63.1296 8.98815 63.4395 9.77746 64.0488 10.4014C64.6601 11.0274 65.4096 11.3456 66.2743 11.3456C66.76 11.3456 67.2165 11.243 67.6268 11.0399C67.9053 10.9018 68.1649 10.7196 68.4077 10.4914V11.197H69.5111V2.82861H68.4077H68.4098ZM68.458 8.15697C68.458 8.56105 68.368 8.92744 68.1879 9.24777C68.01 9.566 67.7503 9.82143 67.4195 10.0078C66.7579 10.3804 65.9644 10.3867 65.3175 10.0078C64.9972 9.81933 64.7376 9.55135 64.5449 9.21008C64.3544 8.86881 64.256 8.5087 64.256 8.13603C64.256 7.76336 64.3523 7.39907 64.5429 7.06199C64.7313 6.72491 64.9888 6.46111 65.3091 6.27477C65.6295 6.08844 65.9833 5.99422 66.3601 5.99422C66.9568 5.99422 67.4447 6.19521 67.8508 6.61185C68.2591 7.02849 68.458 7.53306 68.458 8.15697Z" fill="white"/>
<path d="M49.0938 9.87377C48.8112 9.63928 48.7798 8.98815 48.7902 8.75157L48.853 2.82861H47.6701V8.8395C47.6618 9.84446 47.9046 10.5396 48.3862 10.9059C48.6772 11.1279 48.9954 11.1802 49.232 11.1802C49.4372 11.1802 49.5816 11.1404 49.5942 11.1362L49.7282 11.0986V9.88633L49.5 9.94077C49.3283 9.98055 49.1943 9.95961 49.0917 9.87377H49.0938Z" fill="white"/>
<path d="M45.813 7.49316C45.2352 7.49316 44.783 7.8428 44.783 8.28875C44.783 8.7347 45.2352 9.08434 45.813 9.08434C46.3909 9.08434 46.8431 8.7347 46.8431 8.28875C46.8431 7.8428 46.3909 7.49316 45.813 7.49316Z" fill="white"/>
<path d="M28.6701 5.79124C28.4461 5.55884 28.199 5.37251 27.931 5.23223C27.5228 5.01658 27.0601 4.90771 26.5576 4.90771C25.6887 4.90771 24.9371 5.22386 24.3195 5.84777C23.7039 6.47168 23.3899 7.23377 23.3899 8.11101C23.3899 8.98825 23.6998 9.77756 24.309 10.4015C24.9204 11.0275 25.6699 11.3457 26.5346 11.3457C27.0203 11.3457 27.4767 11.2431 27.8871 11.04C28.1655 10.9019 28.4251 10.7197 28.668 10.4915V11.1971H29.7714V5.05636H28.668V5.79124H28.6701ZM28.1111 6.61195C28.5194 7.02859 28.7183 7.53316 28.7183 8.15707C28.7183 8.56115 28.6282 8.92754 28.4482 9.24786C28.2702 9.5661 28.0106 9.82153 27.6798 10.0079C27.0161 10.3826 26.2247 10.3868 25.5778 10.0079C25.2574 9.81943 24.9957 9.55145 24.8052 9.21018C24.6126 8.86891 24.5163 8.50671 24.5163 8.13613C24.5163 7.76556 24.6126 7.39917 24.8031 7.06209C24.9915 6.72501 25.2512 6.46121 25.5694 6.27487C25.8897 6.08854 26.2435 5.99432 26.6204 5.99432C27.2171 5.99432 27.7049 6.19531 28.1111 6.61195Z" fill="white"/>
<path d="M22.6069 9.87377C22.3242 9.63928 22.2928 8.98815 22.3033 8.75157L22.3661 2.82861H21.1853V8.8395C21.1769 9.84446 21.4198 10.5396 21.9013 10.9059C22.1923 11.1279 22.5106 11.1802 22.7471 11.1802C22.9523 11.1802 23.0968 11.1404 23.1093 11.1362L23.2433 11.0986V9.88633L23.0151 9.94077C22.8434 9.98055 22.7095 9.95961 22.6069 9.87377Z" fill="white"/>
<path d="M44.0565 5.05615L42.2496 9.22462L40.3884 5.05615H38.3387L36.6554 8.9692L34.9239 5.05615H34.5471L32.8303 8.96292L31.1805 5.05615H30.0122L32.6356 11.1989H33.0166L34.7397 7.33614L36.4649 11.1989H36.8438L39.3541 5.42254L41.5587 10.686L41.2216 11.5737C40.872 12.5954 40.223 12.5389 40.1999 12.5368L39.9906 12.5096V13.4664L40.1455 13.4915C40.2376 13.5062 40.3256 13.5145 40.4093 13.5145C41.6299 13.5145 42.2036 12.0448 42.2245 11.9841L45.2498 5.05825H44.0544L44.0565 5.05615Z" fill="white"/>
<path d="M11.4303 8.85442C13.0864 7.71756 15.1926 7.98555 16.4739 9.7505C17.6527 11.3752 17.4328 13.6887 15.9212 15.014C14.9309 15.8828 13.8087 16.0796 12.7807 15.9729C12.7807 15.9729 12.3076 15.9729 11.3236 15.5143C11.3005 15.5039 11.0221 15.3929 10.6473 15.1438C10.2725 14.8946 9.92708 14.6099 9.65282 14.2812C9.31992 13.8855 9.10637 13.5861 8.94307 13.293C8.67927 12.8177 8.45734 12.4702 8.32753 11.863C8.08885 10.7596 7.9737 10.0541 8.47827 8.57387C8.47827 8.57387 8.46152 9.37993 8.8656 10.7157C9.14824 11.6453 9.22152 11.6809 9.30946 11.8274C9.45392 12.0766 9.76378 12.4513 10.0213 12.6712C10.6389 13.1988 11.1226 13.2574 11.9307 13.0334C12.1631 12.9685 12.406 12.9957 12.6216 13.1004C13.1346 13.3495 13.8066 13.1213 14.1709 12.556C14.3698 12.2482 14.3887 11.7416 14.2254 11.4129C14.1039 11.17 13.9343 10.9899 13.7292 10.879C13.6119 10.8162 13.4842 10.7994 13.5031 10.5754C13.5303 10.2216 13.3314 9.68351 13.1953 9.49089C12.9357 9.12241 12.3536 8.75392 11.6125 8.86698" fill="white"/>
<path d="M4.18005 10.9523C4.71393 10.9628 5.13894 11.4067 5.12847 11.9405C5.118 12.4744 4.67415 12.8994 4.14027 12.889C3.60638 12.8785 3.18137 12.4346 3.19184 11.9008C3.20231 11.3669 3.64616 10.9419 4.18005 10.9523Z" fill="white"/>
<path d="M7.65969 12.0598C7.81671 14.0613 6.53121 15.753 4.36218 15.9791C2.36483 16.1864 0.472166 14.8401 0.0806523 12.87C-0.176867 11.5782 0.212553 10.5084 0.819713 9.67089C0.819713 9.67089 1.0563 9.26054 1.94401 8.63872C1.96494 8.62407 2.19943 8.43773 2.60142 8.23883C3.0034 8.03994 3.42422 7.88291 3.84505 7.80754C4.35381 7.71751 4.7202 7.68192 5.05518 7.6882C5.59953 7.69658 6.00989 7.67983 6.60239 7.87035C7.67644 8.2158 8.30035 8.4461 9.33043 9.62274C9.33043 9.62274 8.68558 9.22704 7.3268 8.9109C6.38047 8.69106 6.31347 8.73712 6.14179 8.73712C5.85286 8.73712 5.37551 8.81878 5.05518 8.93183C4.2889 9.20401 3.99579 9.59134 3.78642 10.4058C3.72571 10.6382 3.58125 10.8371 3.38235 10.9711C2.90918 11.2914 2.771 11.9865 3.07877 12.5853C3.24626 12.9098 3.67546 13.182 4.04185 13.2029C4.31403 13.2196 4.5527 13.1631 4.75369 13.0417C4.86675 12.9726 4.94631 12.87 5.13055 12.9977C5.42157 13.1987 5.98895 13.295 6.22344 13.2741C6.67148 13.2322 7.28283 12.914 7.55501 12.2147" fill="white"/>
<path d="M6.75512 7.16887C4.94201 6.30419 4.1213 4.34452 5.0111 2.35346C5.82763 0.519412 7.94222 -0.445764 9.84326 0.201176C11.0911 0.624095 11.8218 1.49715 12.2426 2.44139C12.2426 2.44139 12.4792 2.85175 12.5734 3.93207C12.5755 3.9572 12.6194 4.2545 12.5901 4.70254C12.5608 5.15058 12.4875 5.59234 12.341 5.99642C12.163 6.48215 12.0123 6.81713 11.8385 7.10396C11.558 7.57085 11.3695 7.93515 10.9068 8.35388C10.0715 9.11178 9.39522 9.50329 7.86266 9.80687C7.86266 9.80687 8.68966 9.48026 9.64436 8.46065C10.3081 7.7509 10.3018 7.66925 10.3876 7.5206C10.5321 7.26936 10.6996 6.81504 10.7624 6.48215C10.911 5.68446 10.7205 5.23642 10.1196 4.6481C9.94794 4.48061 9.84954 4.25659 9.83279 4.01582C9.79301 3.44634 9.25913 2.97946 8.58707 2.94596C8.22068 2.92921 7.77263 3.16579 7.56955 3.46937C7.41881 3.69549 7.34972 3.93207 7.3539 4.16656C7.356 4.29846 7.40624 4.4178 7.20316 4.51411C6.88283 4.66695 6.51644 5.10871 6.41804 5.32226C6.22961 5.73052 6.2003 6.41934 6.66928 7.00347" fill="white"/>
<path d="M9.51473 4.55797C9.32002 5.05626 8.75891 5.30331 8.26062 5.1086C7.76233 4.91389 7.51738 4.35279 7.70999 3.8545C7.9047 3.35621 8.4658 3.10916 8.96409 3.30387C9.46238 3.49858 9.70944 4.05968 9.51473 4.55797Z" fill="white"/>
<path d="M12.5713 12.7505C12.1128 12.4762 11.9621 11.8816 12.2363 11.4231C12.5106 10.9646 13.1052 10.8139 13.5637 11.0881C14.0222 11.3624 14.173 11.957 13.9008 12.4155C13.6265 12.874 13.0319 13.0248 12.5734 12.7505" fill="white"/>
</svg>
