<svg width="96" height="36" viewBox="0 0 96 36" fill="none" xmlns="http://www.w3.org/2000/svg">
<path d="M28.8007 21.216C29.7607 21.216 30.2087 20.448 30.2087 19.52C30.2087 18.592 29.7607 17.824 28.8007 17.824H18.6887V15.296H23.9687C26.0167 15.296 26.6887 14.656 26.6887 12.64V5.15202C26.6887 4.03202 25.6967 3.48802 24.6727 3.48802C23.6807 3.48802 22.6887 4.03202 22.6887 5.15202V6.75202H10.6567V5.15202C10.6567 4.03202 9.66472 3.48802 8.64072 3.48802C7.64872 3.48802 6.65672 4.03202 6.65672 5.15202V12.64C6.65672 14.656 7.32872 15.296 9.37672 15.296H14.6567V17.824H4.54472C3.58472 17.824 3.13672 18.592 3.13672 19.52C3.13672 20.448 3.58472 21.216 4.54472 21.216H28.8007ZM22.6567 31.424C22.6567 32.608 23.6487 33.152 24.7047 33.152C25.7607 33.152 26.7527 32.608 26.7527 31.424V25.76C26.7527 23.744 26.0807 23.104 24.0327 23.104H7.61672C6.65672 23.104 6.20872 23.872 6.20872 24.8C6.20872 25.728 6.65672 26.496 7.61672 26.496H21.9207C22.4647 26.496 22.6567 26.688 22.6567 27.232V31.424ZM11.1367 12.032C10.8167 12.032 10.6567 11.872 10.6567 11.552V10.016H22.6887V11.552C22.6887 11.872 22.5287 12.032 22.2087 12.032H11.1367Z" fill="white"/>
<path d="M53.9257 10.88C52.0377 9.85602 51.0777 8.48002 51.0777 6.65602V5.44002C51.0777 4.22402 50.0857 3.68002 48.9977 3.68002C47.9097 3.68002 46.9177 4.22402 46.9177 5.44002V6.65602C46.9177 8.48002 45.9577 9.85602 44.0697 10.88C42.0857 11.936 40.1977 12.832 38.4697 13.632C37.5737 14.048 37.5097 15.264 37.9257 16.096C38.3737 16.96 39.3337 17.44 40.2297 17.024C42.3417 16.064 44.2297 15.136 45.9897 14.176C48.0057 13.088 48.8057 12.192 48.9977 11.36H49.0297C49.1897 12.064 49.9897 12.992 52.0057 14.08C53.7657 15.04 55.6537 15.968 57.7657 16.928C58.6617 17.344 59.6537 16.896 60.0697 16.032C60.4537 15.232 60.4217 14.048 59.5257 13.632C57.7977 12.832 55.9097 11.936 53.9257 10.88ZM46.9497 23.072V31.424C46.9497 32.608 47.9417 33.152 48.9977 33.152C50.0537 33.152 51.0457 32.608 51.0457 31.424V23.072H61.0937C62.0857 23.072 62.5337 22.272 62.5337 21.344C62.5337 20.416 62.0857 19.616 61.0937 19.616H36.9017C35.9097 19.616 35.4617 20.416 35.4617 21.344C35.4617 22.272 35.9097 23.072 36.9017 23.072H46.9497Z" fill="white"/>
<path d="M76.7147 10.528C72.4587 10.528 69.8347 12.48 69.8347 15.744C69.8347 19.008 72.4587 20.96 76.7147 20.96C80.9707 20.96 83.5947 19.008 83.5947 15.744C83.5947 12.48 80.9707 10.528 76.7147 10.528ZM69.4827 5.92002C68.4907 5.92002 68.0427 6.72002 68.0427 7.64802C68.0427 8.54402 68.4907 9.34402 69.4827 9.34402H83.6267C84.6187 9.34402 85.0667 8.54402 85.0667 7.64802C85.0667 6.72002 84.6187 5.92002 83.6267 5.92002H78.7627V4.35202C78.7627 3.16802 77.7707 2.62402 76.7147 2.62402C75.6587 2.62402 74.6667 3.16802 74.6667 4.35202V5.92002H69.4827ZM76.7147 17.856C74.5387 17.856 73.5147 16.96 73.5147 15.744C73.5147 14.528 74.5387 13.632 76.7147 13.632C78.8907 13.632 79.9147 14.528 79.9147 15.744C79.9147 16.96 78.8907 17.856 76.7147 17.856ZM92.4907 4.64002C92.4907 3.48802 91.5307 2.94402 90.5067 2.94402C89.4507 2.94402 88.4907 3.48802 88.4907 4.64002V10.144H85.8667C84.9067 10.144 84.5227 10.912 84.5227 11.808C84.5227 12.736 84.9067 13.504 85.8667 13.504H88.4907V15.456H86.0267C85.0667 15.456 84.6827 16.224 84.6827 17.12C84.6827 18.048 85.0667 18.816 86.0267 18.816H88.4907V20.288C88.4907 21.44 89.4507 21.984 90.5067 21.984C91.5307 21.984 92.4907 21.44 92.4907 20.288V4.64002ZM73.3867 27.616C73.3867 31.488 77.0347 33.184 82.9867 33.184C88.9387 33.184 92.5867 31.488 92.5867 27.616C92.5867 23.744 88.9387 22.048 82.9867 22.048C77.0347 22.048 73.3867 23.744 73.3867 27.616ZM88.5547 27.616C88.5547 29.056 86.9867 29.984 82.9867 29.984C78.9867 29.984 77.4187 29.056 77.4187 27.616C77.4187 26.176 78.9867 25.248 82.9867 25.248C86.9867 25.248 88.5547 26.176 88.5547 27.616Z" fill="white"/>
<path fill-rule="evenodd" clip-rule="evenodd" d="M26.2003 23.716C25.7795 23.2743 25.0892 23.104 24.0327 23.104H7.61672C7.08092 23.104 6.70461 23.3433 6.47666 23.716C6.29619 24.0111 6.20872 24.39 6.20872 24.8C6.20872 25.728 6.65672 26.496 7.61672 26.496H21.9207C22.4647 26.496 22.6567 26.688 22.6567 27.232V31.424C22.6567 32.608 23.6487 33.152 24.7047 33.152C25.7607 33.152 26.7527 32.608 26.7527 31.424V25.76C26.7527 24.784 26.5952 24.1305 26.2003 23.716ZM3.83846 23.6555C2.89349 23.4903 2.06509 22.9918 1.48384 22.2202C0.830394 21.3527 0.636719 20.3443 0.636719 19.52C0.636719 18.6957 0.830395 17.6874 1.48383 16.8199C2.20606 15.8611 3.30985 15.324 4.54472 15.324H4.66002C4.23021 14.408 4.15672 13.4222 4.15672 12.64V5.15202C4.15672 3.75057 4.82074 2.60926 5.7871 1.89228C6.67743 1.23171 7.72846 0.988024 8.64072 0.988024C9.5546 0.988024 10.6128 1.22461 11.5121 1.88469C12.2718 2.44239 12.8435 3.25799 13.0609 4.25202H20.2844C20.5011 3.26097 21.069 2.4488 21.8191 1.89228C22.7094 1.23171 23.7605 0.988024 24.6727 0.988024C25.5866 0.988024 26.6448 1.22461 27.5441 1.88469C28.5223 2.60277 29.1887 3.74844 29.1887 5.15202V12.64C29.1887 13.4222 29.1152 14.408 28.6854 15.324H28.8007C30.0356 15.324 31.1394 15.8611 31.8616 16.8199C32.515 17.6874 32.7087 18.6957 32.7087 19.52C32.7087 20.3443 32.515 21.3527 31.8616 22.2202C31.1768 23.1293 30.149 23.6592 28.9916 23.7117C29.209 24.432 29.2527 25.1566 29.2527 25.76V31.424C29.2527 32.8115 28.6271 33.9829 27.6213 34.7346C26.7018 35.4218 25.6205 35.652 24.7047 35.652C23.7889 35.652 22.7077 35.4218 21.7881 34.7346C20.7823 33.9829 20.1567 32.8115 20.1567 31.424V28.996H7.61672C6.38185 28.996 5.27806 28.459 4.55584 27.5002C3.90239 26.6327 3.70872 25.6243 3.70872 24.8C3.70872 24.4441 3.74483 24.0539 3.83846 23.6555ZM4.54472 21.216C3.58472 21.216 3.13672 20.448 3.13672 19.52C3.13672 18.592 3.58472 17.824 4.54472 17.824H14.6567V15.296H9.37672C7.32872 15.296 6.65672 14.656 6.65672 12.64V5.15202C6.65672 4.03202 7.64872 3.48802 8.64072 3.48802C9.66472 3.48802 10.6567 4.03202 10.6567 5.15202V6.75202H22.6887V5.15202C22.6887 4.03202 23.6807 3.48802 24.6727 3.48802C25.6967 3.48802 26.6887 4.03202 26.6887 5.15202V12.64C26.6887 14.656 26.0167 15.296 23.9687 15.296H18.6887V17.824H28.8007C29.7607 17.824 30.2087 18.592 30.2087 19.52C30.2087 20.448 29.7607 21.216 28.8007 21.216H4.54472ZM10.6567 10.016V11.552C10.6567 11.872 10.8167 12.032 11.1367 12.032H22.2087C22.5287 12.032 22.6887 11.872 22.6887 11.552V10.016H10.6567ZM60.0697 16.032C59.6537 16.896 58.6617 17.344 57.7657 16.928C55.6537 15.968 53.7657 15.04 52.0057 14.08C51.5517 13.835 51.1594 13.5981 50.8221 13.37C49.6674 12.5891 49.1585 11.912 49.0315 11.3678C49.0309 11.3652 49.0303 11.3626 49.0297 11.36H48.9977C48.9971 11.3626 48.9965 11.3651 48.9959 11.3677C48.8487 11.9937 48.3565 12.6562 47.2608 13.4095C46.904 13.6548 46.4833 13.9096 45.9897 14.176C44.2297 15.136 42.3417 16.064 40.2297 17.024C40.1478 17.062 40.0654 17.0926 39.9829 17.116C39.6912 17.1989 39.3984 17.1931 39.1238 17.116C38.626 16.9762 38.1881 16.602 37.9257 16.096C37.5097 15.264 37.5737 14.048 38.4697 13.632C40.1977 12.832 42.0857 11.936 44.0697 10.88C45.9577 9.85602 46.9177 8.48002 46.9177 6.65602V5.44002C46.9177 4.22402 47.9097 3.68002 48.9977 3.68002C50.0857 3.68002 51.0777 4.22402 51.0777 5.44002V6.65602C51.0777 8.48002 52.0377 9.85602 53.9257 10.88C55.9097 11.936 57.7977 12.832 59.5257 13.632C60.4217 14.048 60.4537 15.232 60.0697 16.032ZM55.1095 8.67805C54.4191 8.30235 54.0544 7.94657 53.861 7.66225C53.6849 7.40328 53.5777 7.09958 53.5777 6.65602V5.44002C53.5777 4.05863 52.97 2.8722 51.9457 2.10402C51.0122 1.4039 49.9158 1.18002 48.9977 1.18002C48.0796 1.18002 46.9832 1.4039 46.0497 2.10402C45.0255 2.8722 44.4177 4.05863 44.4177 5.44002V6.65602C44.4177 7.09958 44.3105 7.40328 44.1344 7.66225C43.9411 7.94657 43.5763 8.30235 42.8859 8.67805C40.9663 9.69945 39.1304 10.5712 37.4194 11.3634L37.4169 11.3645C36.0406 12.0035 35.4143 13.2405 35.2392 14.3005C35.0712 15.3172 35.263 16.3608 35.6897 17.2141L35.6979 17.2305L35.7063 17.2468C35.7132 17.2601 35.7202 17.2734 35.7273 17.2867C34.9592 17.5195 34.2941 17.9834 33.8067 18.6361C33.1546 19.5091 32.9617 20.5212 32.9617 21.344C32.9617 22.1669 33.1546 23.1789 33.8067 24.052C34.5291 25.0193 35.6416 25.572 36.9017 25.572H44.4497V31.424C44.4497 32.8115 45.0753 33.9829 46.0811 34.7346C47.0007 35.4218 48.0819 35.652 48.9977 35.652C49.9135 35.652 50.9948 35.4218 51.9143 34.7346C52.9201 33.9829 53.5457 32.8115 53.5457 31.424V25.572H61.0937C62.3539 25.572 63.4663 25.0193 64.1888 24.052C64.8408 23.1789 65.0337 22.1669 65.0337 21.344C65.0337 20.5212 64.8408 19.5091 64.1888 18.6361C63.6954 17.9755 63.0201 17.5082 62.24 17.2783C62.2686 17.225 62.296 17.171 62.3222 17.1166L62.3235 17.1138C62.7122 16.3041 62.9073 15.2944 62.746 14.2913C62.5758 13.2323 61.9534 12.0029 60.5785 11.3645L60.576 11.3634C58.865 10.5712 57.0292 9.69945 55.1095 8.67805ZM52.3973 17.116C51.8583 16.8387 51.3309 16.5596 50.8131 16.2772C50.1566 15.9227 49.5738 15.5617 49.0656 15.191C48.4987 15.617 47.8612 16.0066 47.1819 16.3735C46.724 16.6232 46.2585 16.8704 45.7842 17.116H52.3973ZM36.9017 19.616C35.9097 19.616 35.4617 20.416 35.4617 21.344C35.4617 22.272 35.9097 23.072 36.9017 23.072H46.9497V31.424C46.9497 32.608 47.9417 33.152 48.9977 33.152C50.0537 33.152 51.0457 32.608 51.0457 31.424V23.072H61.0937C62.0857 23.072 62.5337 22.272 62.5337 21.344C62.5337 20.416 62.0857 19.616 61.0937 19.616H36.9017ZM69.4827 9.34402C68.4907 9.34402 68.0427 8.54402 68.0427 7.64802C68.0427 6.72002 68.4907 5.92002 69.4827 5.92002H74.6667V4.35202C74.6667 3.16802 75.6587 2.62402 76.7147 2.62402C77.7707 2.62402 78.7627 3.16802 78.7627 4.35202V5.92002H83.6267C84.6187 5.92002 85.0667 6.72002 85.0667 7.64802C85.0667 7.67304 85.0664 7.69799 85.0657 7.72284C85.0413 8.58808 84.591 9.34402 83.6267 9.34402H69.4827ZM68.4797 11.7211C67.6427 11.5092 66.9189 11.0303 66.3969 10.3402C65.7431 9.4759 65.5427 8.47101 65.5427 7.64802C65.5427 6.82518 65.7356 5.81315 66.3877 4.94008C67.1101 3.97278 68.2226 3.42002 69.4827 3.42002H72.2655C72.4789 2.44151 73.0266 1.61806 73.7981 1.0415C74.7177 0.354222 75.7989 0.124023 76.7147 0.124023C77.6305 0.124023 78.7118 0.354222 79.6313 1.0415C80.4028 1.61806 80.9506 2.44151 81.1639 3.42002H83.6267C84.526 3.42002 85.3502 3.70155 86.0109 4.21437C86.1243 3.03432 86.7077 2.03368 87.5993 1.3626C88.5127 0.675119 89.5892 0.444023 90.5067 0.444023C91.4226 0.444023 92.4918 0.682084 93.3965 1.37045C94.3812 2.11968 94.9907 3.27735 94.9907 4.64002V20.288C94.9907 21.501 94.5078 22.5516 93.7071 23.2962C94.5904 24.4712 95.0867 25.9215 95.0867 27.616C95.0867 30.538 93.611 32.7335 91.2207 34.0441C89.0213 35.25 86.1236 35.684 82.9867 35.684C79.8498 35.684 76.9521 35.25 74.7528 34.0441C72.3625 32.7335 70.8867 30.538 70.8867 27.616C70.8867 25.6988 71.5221 24.0943 72.6343 22.8473C71.7367 22.5454 70.9068 22.1252 70.1733 21.572C68.3316 20.1829 67.3347 18.1256 67.3347 15.744C67.3347 14.2463 67.729 12.8768 68.4797 11.7211ZM71.771 11.844C70.5247 12.7415 69.8347 14.0703 69.8347 15.744C69.8347 18.6428 71.9043 20.5067 75.3486 20.8876C75.7826 20.9356 76.2384 20.96 76.7147 20.96C78.8463 20.96 80.5685 20.4704 81.7567 19.5715C82.0301 19.3647 82.2753 19.1361 82.4907 18.8869C82.9282 18.3806 83.2427 17.7889 83.4215 17.12C83.5359 16.6922 83.5947 16.2328 83.5947 15.744C83.5947 15.5787 83.588 15.4167 83.5746 15.2582C83.5389 14.8333 83.4557 14.4331 83.3275 14.0594C83.0703 13.3093 82.6319 12.6654 82.0325 12.1409C81.914 12.0372 81.7893 11.9383 81.6584 11.844C80.4744 10.9914 78.7883 10.528 76.7147 10.528C74.6412 10.528 72.955 10.9914 71.771 11.844ZM84.5233 11.7465C84.5229 11.7669 84.5227 11.7874 84.5227 11.808C84.5227 12.328 84.6433 12.7977 84.9181 13.1102C85.1176 13.3371 85.3985 13.4812 85.7736 13.5015C85.804 13.5032 85.8351 13.504 85.8667 13.504H88.4907V15.456H86.0267C85.9715 15.456 85.9182 15.4586 85.8667 15.4635C85.5842 15.4908 85.358 15.591 85.1822 15.744C85.1229 15.7956 85.0694 15.8531 85.0214 15.9159C84.7866 16.2226 84.6827 16.654 84.6827 17.12C84.6827 17.8572 84.925 18.4934 85.5059 18.7239C85.6563 18.7835 85.8293 18.816 86.0267 18.816H88.4907V20.288C88.4907 21.44 89.4507 21.984 90.5067 21.984C91.0118 21.984 91.5013 21.8517 91.8677 21.5793C92.2442 21.2995 92.4907 20.8718 92.4907 20.288V4.64002C92.4907 3.48802 91.5307 2.94402 90.5067 2.94402C89.4507 2.94402 88.4907 3.48802 88.4907 4.64002V10.144H85.8667C85.1289 10.144 84.7314 10.5976 84.5868 11.2143C84.5476 11.3816 84.527 11.561 84.5233 11.7465ZM86.4894 22.2875C85.437 22.1262 84.265 22.048 82.9867 22.048C82.8372 22.048 82.6891 22.0491 82.5425 22.0512C80.191 22.0857 78.219 22.3975 76.7147 23.0182C76.408 23.1447 76.1207 23.2841 75.8537 23.4366C74.2617 24.3454 73.3867 25.7198 73.3867 27.616C73.3867 31.488 77.0347 33.184 82.9867 33.184C88.9387 33.184 92.5867 31.488 92.5867 27.616C92.5867 26.304 92.1679 25.2419 91.3825 24.4109C91.1284 24.142 90.8358 23.8973 90.5067 23.6762C89.4958 22.997 88.1396 22.5402 86.4894 22.2875ZM73.5147 15.744C73.5147 16.96 74.5387 17.856 76.7147 17.856C78.8907 17.856 79.9147 16.96 79.9147 15.744C79.9147 14.528 78.8907 13.632 76.7147 13.632C74.5387 13.632 73.5147 14.528 73.5147 15.744ZM82.9867 29.984C86.9867 29.984 88.5547 29.056 88.5547 27.616C88.5547 26.176 86.9867 25.248 82.9867 25.248C78.9867 25.248 77.4187 26.176 77.4187 27.616C77.4187 29.056 78.9867 29.984 82.9867 29.984Z" fill="#FF6559"/>
</svg>
