<svg width="16" height="12" viewBox="0 0 16 12" fill="none" xmlns="http://www.w3.org/2000/svg">
<path d="M-1.75 -2.4998C-1.75 -3.21777 -1.16797 -3.7998 -0.45 -3.7998H16.45C17.168 -3.7998 17.75 -3.21777 17.75 -2.4998V12.4502C17.75 13.1682 17.168 13.7502 16.45 13.7502H-0.450001C-1.16797 13.7502 -1.75 13.1682 -1.75 12.4502V-2.4998Z" fill="#D9D9D9"/>
<rect x="-0.449951" y="-0.549805" width="16.9" height="13" fill="#D9D9D9"/>
<rect x="0.849976" y="0.75" width="2.6" height="2.6" fill="white"/>
<rect x="0.849976" y="4.6499" width="2.6" height="2.6" fill="white"/>
<rect x="0.849976" y="8.5498" width="2.6" height="2.6" fill="white"/>
<rect x="4.75" y="0.75" width="2.6" height="2.6" fill="white"/>
<rect x="4.75" y="4.6499" width="2.6" height="2.6" fill="white"/>
<rect x="4.75" y="8.5498" width="2.6" height="2.6" fill="white"/>
<rect x="8.65002" y="0.75" width="2.6" height="2.6" fill="white"/>
<rect x="8.65002" y="4.6499" width="2.6" height="2.6" fill="white"/>
<rect x="8.65002" y="8.5498" width="2.6" height="2.6" fill="white"/>
<rect x="12.55" y="0.75" width="2.6" height="2.6" fill="white"/>
<rect x="12.55" y="4.6499" width="2.6" height="2.6" fill="white"/>
<rect x="12.55" y="8.5498" width="2.6" height="2.6" fill="white"/>
</svg>
