<svg width="18" height="18" viewBox="0 0 18 18" fill="none" xmlns="http://www.w3.org/2000/svg">
<path fill-rule="evenodd" clip-rule="evenodd" d="M14 9C14 11.7614 11.7614 14 9 14C6.23858 14 4 11.7614 4 9C4 6.23858 6.23858 4 9 4C11.7614 4 14 6.23858 14 9ZM15 9C15 12.3137 12.3137 15 9 15C5.68629 15 3 12.3137 3 9C3 5.68629 5.68629 3 9 3C12.3137 3 15 5.68629 15 9ZM8.37938 10.7622H9.54288C9.53679 10.3862 9.56569 10.1253 9.62957 9.97947C9.69649 9.83363 9.86531 9.64078 10.136 9.40095C10.6592 8.93748 10.9999 8.57124 11.1581 8.30223C11.3193 8.03322 11.3999 7.74801 11.3999 7.44659C11.3999 6.90209 11.1824 6.42566 10.7474 6.01729C10.3125 5.60567 9.72691 5.39986 8.99078 5.39986C8.29116 5.39986 7.72539 5.60243 7.29345 6.00756C6.86455 6.41269 6.63337 6.90533 6.59991 7.48548L7.7771 7.64105C7.85923 7.23592 8.0098 6.9345 8.22881 6.7368C8.44782 6.5391 8.72006 6.44024 9.04554 6.44024C9.38318 6.44024 9.65086 6.53585 9.84858 6.72708C10.0493 6.91506 10.1497 7.14193 10.1497 7.4077C10.1497 7.59892 10.0934 7.77394 9.9809 7.93275C9.90789 8.03322 9.68432 8.24551 9.31018 8.56962C8.93603 8.89372 8.6866 9.18542 8.56189 9.4447C8.43717 9.70398 8.37481 10.0346 8.37481 10.4365C8.37481 10.4754 8.37634 10.5839 8.37938 10.7622ZM8.37938 11.2338V12.5999H9.66151V11.2338H8.37938Z" fill="#0089ED"/>
</svg>
