<svg width="90" height="90" viewBox="0 0 90 90" fill="none" xmlns="http://www.w3.org/2000/svg">
<g clip-path="url(#clip0_1417_4745)">
<path d="M63.3867 31.4146C56.1273 24.8119 44.8533 25.5395 43.4233 25.6578C42.5053 25.7116 41.0965 25.8801 41.0965 25.8801C39.67 26.0342 28.4631 27.468 22.556 35.3397C19.5124 39.3938 18.4673 44.3477 19.4418 50.0722C21.3909 61.507 27.2662 68.6833 31.8492 72.6836C32.0293 72.8414 32.2094 72.9955 32.393 73.1496C37.6963 77.6017 43.0349 79.4836 46.3292 79.4441C46.5905 79.4441 46.9153 79.4334 47.2684 79.3975C47.6215 79.3617 47.9463 79.3151 48.2006 79.2649C51.4419 78.677 56.3356 75.8094 60.7245 70.4254C60.8728 70.2426 61.0246 70.0526 61.1729 69.8662C64.9332 65.0593 69.375 56.8937 69.1738 45.2904C69.0714 39.4835 67.1294 34.8164 63.3903 31.4146H63.3867Z" fill="#E73A50"/>
<path d="M63.6799 31.0812C56.3075 24.3745 44.8569 25.1129 43.4022 25.2348C42.4701 25.2885 41.0366 25.4606 41.0366 25.4606C39.9667 25.5753 33.4841 26.4033 27.75 30.0452C32.439 27.4823 37.1562 26.8729 38.0177 26.7797C38.0177 26.7797 39.3312 26.6184 40.1856 26.5718C41.5168 26.4607 52.0069 25.8047 58.8073 32.429C62.3099 35.8415 64.1459 40.505 64.2801 46.2905C64.5379 57.8507 60.4527 65.9589 56.9819 70.7228C56.8442 70.9092 56.7065 71.0956 56.5687 71.2784C52.8049 76.2394 48.6208 79.0246 45.6267 79.8491C45.8774 79.867 46.121 79.8742 46.354 79.8706C46.6188 79.8706 46.9507 79.8563 47.3109 79.824C47.671 79.7882 47.9994 79.7416 48.2571 79.6878C51.5514 79.0892 56.5228 76.1785 60.9788 70.7085C61.1306 70.5221 61.2824 70.3321 61.4343 70.1421C65.2546 65.2599 69.767 56.9653 69.5623 45.1792C69.4599 39.2826 67.4826 34.5403 63.6869 31.0848L63.6799 31.0812Z" fill="#DD2140"/>
<path d="M55.3082 33.2176C49.5776 26.5073 40.9094 26.9876 39.8113 27.0773C39.1087 27.1095 38.0247 27.2493 38.0247 27.2493C36.9302 27.3712 28.3255 28.5541 23.9402 36.2358C21.6804 40.1932 20.9778 45.0897 21.8499 50.7891C23.5906 62.1808 28.2655 69.4252 31.881 73.4973C32.0223 73.6586 32.167 73.8163 32.3083 73.9705C36.4853 78.5049 40.6375 80.4872 43.1727 80.5194C43.3739 80.5266 43.6246 80.5194 43.8965 80.4944C44.1684 80.4693 44.4155 80.4298 44.6133 80.3796C47.099 79.8671 50.8099 77.1284 54.0724 71.8771C54.1854 71.6978 54.2948 71.515 54.4043 71.3322C57.2007 66.6436 60.4491 58.6357 60.0537 47.1149C59.8524 41.351 58.26 36.6731 55.3082 33.2212V33.2176Z" fill="#E94D5D"/>
<path d="M63.3867 31.4146C56.1273 24.8119 44.8533 25.5395 43.4233 25.6578C42.5053 25.7116 41.0965 25.8801 41.0965 25.8801C39.67 26.0342 28.4631 27.468 22.556 35.3397C19.5124 39.3938 18.4673 44.3477 19.4418 50.0722C21.3909 61.507 27.2662 68.6833 31.8492 72.6836C32.0293 72.8414 32.2094 72.9955 32.393 73.1496C37.6963 77.6017 43.0349 79.4836 46.3292 79.4441C46.5905 79.4441 46.9153 79.4334 47.2684 79.3975C47.6215 79.3617 47.9463 79.3151 48.2006 79.2649C51.4419 78.677 56.3356 75.8094 60.7245 70.4254C60.8728 70.2426 61.0246 70.0526 61.1729 69.8662C64.9332 65.0593 69.375 56.8937 69.1738 45.2904C69.0714 39.4835 67.1294 34.8164 63.3903 31.4146H63.3867Z" fill="url(#paint0_linear_1417_4745)"/>
<path d="M34.5927 73.2822C29.9426 69.2711 23.986 62.0805 22.0158 50.6063C21.0342 44.8638 22.1005 39.8921 25.1971 35.82C31.2066 27.9161 42.59 26.4643 44.0412 26.3066C44.0412 26.3066 45.4747 26.1345 46.4069 26.0772C47.2366 26.0091 51.3395 25.7366 56.0779 26.7511C50.1743 24.7688 44.4049 25.1488 43.4021 25.2312C42.47 25.285 41.0365 25.457 41.0365 25.457C39.5888 25.6148 28.2018 27.0701 22.2029 35.0672C19.1099 39.1859 18.0507 44.2186 19.0393 50.0328C21.0201 61.6503 26.9872 68.9342 31.6409 73.0026C31.8245 73.1639 32.0081 73.3217 32.1917 73.4758C37.5798 77.9995 43.0031 79.9101 46.3469 79.8707C46.5552 79.8707 46.8129 79.8599 47.0848 79.8384C43.8082 79.2434 39.4652 77.3292 35.14 73.7446C34.9564 73.5941 34.7727 73.4364 34.5891 73.2786L34.5927 73.2822Z" fill="white"/>
<path opacity="0.41" d="M53.8887 30.3463C54.1747 31.0955 53.8075 31.9414 53.066 32.2282C52.3281 32.5186 51.4983 32.1458 51.2123 31.393C50.9263 30.6438 51.2935 29.7979 52.035 29.5075C52.7729 29.2208 53.6027 29.5936 53.8887 30.3427V30.3463Z" fill="white"/>
<path opacity="0.41" d="M64.2553 41.9387C64.2305 41.9459 64.2094 41.9567 64.1846 41.9638C63.5032 42.1861 62.7688 41.8061 62.5499 41.1143C60.4878 34.6298 55.8271 33.2677 55.7812 33.2569C55.0892 33.0634 54.6831 32.3393 54.8703 31.6367C55.0609 30.9341 55.7777 30.5219 56.4662 30.7119C56.7098 30.7836 62.5322 32.4791 65.0214 40.3042C65.2333 40.9745 64.8908 41.6914 64.2553 41.9423V41.9387Z" fill="white"/>
<path d="M64.6507 29.9807C56.8016 22.8403 44.6414 23.6468 43.3208 23.7615C42.3569 23.8153 40.9269 23.991 40.8845 23.9945C39.3875 24.1558 31.6055 25.199 25.3171 29.9413C24.6709 30.4288 24.5367 31.3536 25.0169 32.0096C25.4971 32.6656 26.4081 32.8018 27.0542 32.3143C32.8589 27.9411 40.3585 27.0271 41.2129 26.9339C41.227 26.9339 42.6111 26.7654 43.5256 26.7116C44.7579 26.6077 55.7706 25.8728 62.7122 32.1853C66.1936 35.3504 68.0085 39.7343 68.1038 45.2044C68.298 56.5531 63.9621 64.5323 60.2936 69.2209C60.1488 69.4037 60.0041 69.5865 59.8558 69.7694C55.3998 75.2394 50.6862 77.7486 47.9709 78.2397C47.5296 78.3293 46.8481 78.3974 46.3362 78.3938C43.6104 78.4261 38.5118 76.8632 33.1238 72.3359C32.9472 72.1889 32.7707 72.0348 32.5941 71.8842C28.1205 67.9735 22.3829 60.9657 20.4763 49.7818C19.9431 46.6418 20.0455 43.7347 20.787 41.1395C21.0094 40.3545 20.5645 39.5372 19.7913 39.3078C19.018 39.0819 18.213 39.5336 17.987 40.3186C17.1255 43.3512 16.9949 46.7027 17.6057 50.2873C19.6606 62.335 25.8573 69.902 30.6945 74.1282C30.8852 74.2931 31.0759 74.458 31.2665 74.6157C37.2548 79.6448 42.9925 81.3905 46.3362 81.3511C46.661 81.3511 47.0459 81.3367 47.4413 81.2973C47.8368 81.2579 48.2181 81.2041 48.5076 81.1467C51.8302 80.5445 57.1405 77.7342 62.0908 71.6548C62.2497 71.4613 62.4086 71.2605 62.5639 71.0634C66.5326 65.9912 71.218 57.3811 71.0062 45.1542C70.8932 38.8239 68.7535 33.723 64.6471 29.9843L64.6507 29.9807Z" fill="#33302C"/>
<path d="M23.3751 35.1604C24.1695 35.0851 24.7521 34.3682 24.6779 33.5617C24.6038 32.7552 23.8976 32.1637 23.1032 32.239C22.3087 32.3143 21.7262 33.0312 21.8003 33.8377C21.8745 34.6442 22.5806 35.2357 23.3751 35.1604Z" fill="#33302C"/>
<path d="M20.2046 12.4988L20.5047 14.0259C20.5294 14.1585 23.2341 27.2135 37.5057 26.8801C37.6646 26.8801 37.8235 26.8729 37.9859 26.8622C39.257 26.8084 40.5987 26.6435 41.9758 26.3782C42.3924 26.2994 42.7526 26.0592 42.9891 25.7044C43.2257 25.3495 43.314 24.9229 43.2363 24.5035C43.2433 24.3458 43.2292 24.1917 43.1904 24.0411C43.1621 23.9157 39.8785 10.8858 26.2847 11.4737C24.8265 11.5382 23.2835 11.7604 21.6981 12.1404L20.2081 12.4953L20.2046 12.4988ZM24.0673 14.9399C24.8688 14.8073 25.6562 14.7248 26.4083 14.6926C35.08 14.3162 38.5544 20.6501 39.6701 23.4927C39.0416 23.5715 38.4237 23.6253 37.8235 23.6504C28.6362 24.0483 25.229 18.1338 24.0673 14.9399V14.9399Z" fill="#33302C"/>
<path d="M23.3013 14.4955L40.447 23.9802C28.0008 25.898 24.2334 17.4671 23.3013 14.4955Z" fill="#83B127"/>
<path d="M40.4683 23.9766C40.4683 23.9766 40.4542 23.9766 40.4472 23.9766L23.3014 14.4954C23.3014 14.4954 23.3014 14.4811 23.2979 14.4775C35.5499 12.083 39.568 21.281 40.4683 23.9766V23.9766Z" fill="#9BC551"/>
<path d="M59.9408 8.46265C58.3131 8.39454 56.756 8.46623 55.3119 8.68489C41.8523 10.6994 41.0402 24.1236 41.0332 24.249C41.0226 24.4032 41.0332 24.5573 41.072 24.7115C41.072 25.138 41.238 25.5395 41.5381 25.8442C41.8382 26.1489 42.2337 26.3138 42.6574 26.3138C44.0591 26.3138 45.4079 26.217 46.6649 26.027C46.8238 26.0019 46.9826 25.9768 47.1415 25.9517C61.2155 23.5536 61.4556 10.2155 61.4556 10.0829L61.4697 8.52717L59.9408 8.46265V8.46265ZM46.227 22.8439C45.6339 22.9335 45.0195 22.998 44.3839 23.0411C44.9524 20.0336 47.1945 13.1513 55.7815 11.868C56.53 11.7569 57.3139 11.6888 58.126 11.6637C57.5752 15.0224 55.326 21.4818 46.227 22.8439Z" fill="#33302C"/>
<path d="M58.7932 11.0793L43.7095 23.6647C56.2899 23.1736 58.4296 14.1764 58.7932 11.0793V11.0793Z" fill="#83B127"/>
<path d="M43.6886 23.6683C43.6886 23.6683 43.7027 23.6683 43.7098 23.6683L58.7935 11.0793C58.7935 11.0793 58.7935 11.065 58.7935 11.0614C46.3155 11.0435 44.0735 20.8473 43.6851 23.6647L43.6886 23.6683Z" fill="#9BC551"/>
<path d="M35.6164 32.705C35.6694 33.2893 35.3375 33.8019 34.8749 33.8449C34.4089 33.8879 33.9887 33.4506 33.9357 32.8663C33.8828 32.2821 34.2147 31.7695 34.6772 31.7229C35.1397 31.6763 35.5634 32.1172 35.6164 32.7014V32.705Z" fill="#E73A50"/>
<path d="M46.0292 31.7049C46.0857 32.2892 45.7502 32.8018 45.2877 32.8448C44.8216 32.8878 44.4015 32.4505 44.3485 31.8662C44.292 31.2819 44.6274 30.7693 45.09 30.7263C45.5525 30.6833 45.9727 31.1206 46.0292 31.7049Z" fill="#E73A50"/>
<path d="M31.0866 40.1358C31.1431 40.7201 30.8112 41.2327 30.3451 41.2757C29.8791 41.3187 29.4589 40.8814 29.4059 40.2971C29.353 39.7128 29.6849 39.2002 30.1474 39.1572C30.6135 39.1142 31.0301 39.5515 31.0866 40.1358Z" fill="#E73A50"/>
<path d="M41.4954 39.1357C41.5483 39.72 41.2164 40.2326 40.7539 40.2756C40.2878 40.3186 39.8676 39.8813 39.8147 39.297C39.7617 38.7127 40.0901 38.2001 40.5562 38.1571C41.0187 38.1141 41.4424 38.5514 41.4954 39.1357Z" fill="#E73A50"/>
<path d="M51.9079 38.132C51.9644 38.7163 51.6325 39.2289 51.1664 39.2719C50.7004 39.3149 50.2802 38.8776 50.2272 38.2933C50.1743 37.709 50.5062 37.1964 50.9687 37.1534C51.4312 37.1104 51.855 37.5477 51.9079 38.132Z" fill="#E73A50"/>
<path d="M26.454 47.0611C26.5105 47.649 26.175 48.158 25.7125 48.201C25.25 48.244 24.8263 47.8067 24.7733 47.2224C24.7168 46.6381 25.0522 46.1255 25.5148 46.0825C25.9773 46.0395 26.401 46.4768 26.454 47.0611Z" fill="#E73A50"/>
<path d="M36.8627 46.0611C36.9156 46.649 36.5837 47.158 36.1212 47.201C35.6551 47.2476 35.235 46.8067 35.182 46.2224C35.1255 45.6381 35.4609 45.1255 35.9235 45.0825C36.386 45.0395 36.8097 45.4768 36.8627 46.0611Z" fill="#E73A50"/>
<path d="M47.2756 45.0574C47.3286 45.6453 46.9967 46.1543 46.5341 46.1973C46.068 46.2403 45.6479 45.803 45.5949 45.2187C45.5419 44.6345 45.8738 44.1219 46.3364 44.0788C46.7989 44.0358 47.2226 44.4732 47.2756 45.0574Z" fill="#E73A50"/>
<path d="M57.6879 44.0573C57.7409 44.6416 57.409 45.1542 56.9464 45.1972C56.4839 45.2402 56.0602 44.8029 56.0072 44.2186C55.9507 43.6343 56.2826 43.1217 56.7487 43.0787C57.2113 43.0357 57.635 43.473 57.6879 44.0573Z" fill="#E73A50"/>
<path d="M32.3329 53.4919C32.3859 54.0762 32.0575 54.5888 31.5914 54.6318C31.1289 54.6748 30.7052 54.2375 30.6522 53.6532C30.5957 53.0689 30.9311 52.5563 31.3937 52.5133C31.8562 52.4703 32.2764 52.9076 32.3329 53.4919Z" fill="#E73A50"/>
<path d="M42.7419 52.4882C42.7984 53.0725 42.463 53.5851 42.0005 53.6281C41.5344 53.6711 41.1142 53.2338 41.0613 52.6495C41.0083 52.0652 41.3367 51.5526 41.8027 51.5096C42.2653 51.4666 42.689 51.9039 42.7419 52.4882Z" fill="#E73A50"/>
<path d="M53.154 51.4881C53.207 52.0724 52.8751 52.585 52.4125 52.628C51.9465 52.671 51.5263 52.2337 51.4733 51.6494C51.4204 51.0651 51.7523 50.5525 52.2148 50.5095C52.6809 50.4665 53.101 50.9038 53.154 51.4881Z" fill="#E73A50"/>
<path d="M27.778 61.2381C27.8345 61.826 27.4991 62.335 27.0366 62.378C26.5705 62.421 26.1503 61.9837 26.0973 61.3994C26.0444 60.8151 26.3763 60.3025 26.8388 60.2595C27.3049 60.2165 27.7251 60.6538 27.778 61.2381Z" fill="#E73A50"/>
<path d="M38.1869 60.2344C38.2399 60.8223 37.908 61.3313 37.4454 61.3743C36.9793 61.4173 36.5592 60.98 36.5062 60.3957C36.4497 59.8114 36.7851 59.2988 37.2477 59.2558C37.7102 59.2092 38.1339 59.6501 38.1869 60.2344Z" fill="#E73A50"/>
<path d="M48.5995 59.2343C48.656 59.8222 48.3241 60.3312 47.858 60.3742C47.3919 60.4208 46.9718 59.9799 46.9188 59.3956C46.8623 58.8113 47.1977 58.2987 47.6603 58.2557C48.1228 58.2127 48.543 58.65 48.5995 59.2343Z" fill="#E73A50"/>
<path d="M59.0085 58.2306C59.065 58.8185 58.7296 59.3275 58.267 59.3705C57.8045 59.4135 57.3843 58.9762 57.3278 58.3919C57.2749 57.8076 57.6068 57.2951 58.0693 57.252C58.5318 57.2054 58.9555 57.6463 59.0085 58.2306Z" fill="#E73A50"/>
<path d="M33.6532 67.6688C33.7062 68.253 33.3778 68.7656 32.9117 68.8087C32.4492 68.8517 32.0255 68.4144 31.9725 67.8301C31.916 67.2458 32.2515 66.7332 32.714 66.6902C33.1765 66.6472 33.5967 67.0845 33.6532 67.6688V67.6688Z" fill="#E73A50"/>
<path d="M44.0657 66.6651C44.1186 67.2494 43.7867 67.762 43.3242 67.805C42.8581 67.8516 42.438 67.4107 42.385 66.8264C42.332 66.2421 42.6604 65.7295 43.1265 65.6865C43.589 65.6435 44.0127 66.0808 44.0657 66.6651Z" fill="#E73A50"/>
<path d="M54.4782 65.665C54.5312 66.2493 54.1993 66.7619 53.7368 66.8049C53.2742 66.8479 52.8505 66.4106 52.7975 65.8263C52.7446 65.242 53.0765 64.7294 53.539 64.6864C54.0016 64.6434 54.4253 65.0807 54.4782 65.665Z" fill="#E73A50"/>
<path d="M39.4335 73.5905C39.49 74.1783 39.1545 74.6873 38.692 74.7339C38.2259 74.777 37.8058 74.3396 37.7528 73.7554C37.6963 73.1711 38.0317 72.6585 38.4943 72.6155C38.9603 72.5725 39.3805 73.0098 39.4335 73.5941V73.5905Z" fill="#E73A50"/>
<path d="M49.8456 72.5903C49.9021 73.1782 49.5702 73.6872 49.1041 73.7338C48.638 73.7768 48.2179 73.3395 48.1649 72.7552C48.1084 72.171 48.4438 71.6584 48.9064 71.6153C49.3689 71.5723 49.7891 72.0096 49.8456 72.5939V72.5903Z" fill="#E73A50"/>
</g>
<defs>
<linearGradient id="paint0_linear_1417_4745" x1="21.4201" y1="30.9535" x2="54.4584" y2="56.7554" gradientUnits="userSpaceOnUse">
<stop stop-color="#F5A54D"/>
<stop offset="0.33" stop-color="#EF7F43"/>
<stop offset="0.78" stop-color="#E95338"/>
<stop offset="1" stop-color="#E74234"/>
</linearGradient>
<clipPath id="clip0_1417_4745">
<rect width="54.375" height="73.125" fill="white" transform="translate(16.875 8.4375)"/>
</clipPath>
</defs>
</svg>
