<svg width="95" height="36" viewBox="0 0 95 36" fill="none" xmlns="http://www.w3.org/2000/svg">
<path d="M12.6646 8.60802C13.2086 8.60802 13.4006 8.80002 13.4006 9.34402V11.2C13.4006 15.008 12.8566 15.968 4.08856 21.28C3.16056 21.856 3.25656 23.072 3.76856 23.84C4.28056 24.608 5.36856 25.088 6.26456 24.544C15.9926 18.592 17.4646 16.736 17.4646 11.328V7.77602C17.4646 5.76002 16.7926 5.12002 14.7446 5.12002H5.11256C4.12056 5.12002 3.67256 5.92002 3.67256 6.88002C3.67256 7.80802 4.12056 8.60802 5.11256 8.60802H12.6646ZM26.6486 4.67202C26.6486 3.48802 25.6566 2.94402 24.5686 2.94402C23.5126 2.94402 22.5206 3.48802 22.5206 4.67202V29.184C22.5206 30.368 23.5126 30.912 24.5686 30.912C25.6566 30.912 26.6486 30.368 26.6486 29.184V4.67202Z" fill="white"/>
<path d="M60.0936 22.016C61.0856 22.016 61.5336 21.216 61.5336 20.288C61.5336 19.392 61.0856 18.592 60.0936 18.592H50.0136V15.744H55.2936C57.3416 15.744 58.0136 15.104 58.0136 13.088V5.28002C58.0136 4.16002 57.0216 3.61602 55.9976 3.61602C55.0056 3.61602 54.0136 4.16002 54.0136 5.28002V7.04002H41.9816V5.28002C41.9816 4.16002 40.9896 3.61602 39.9656 3.61602C38.9736 3.61602 37.9816 4.16002 37.9816 5.28002V13.088C37.9816 15.104 38.6536 15.744 40.7016 15.744H45.9816V18.592H35.9016C34.9096 18.592 34.4616 19.392 34.4616 20.288C34.4616 21.216 34.9096 22.016 35.9016 22.016H60.0936ZM42.7816 29.056C42.2376 29.056 42.0456 28.864 42.0456 28.32V25.152C42.0456 23.968 41.0536 23.424 39.9976 23.424C38.9096 23.424 37.9176 23.968 37.9176 25.152V29.856C37.9176 31.872 38.5896 32.512 40.6376 32.512H57.1496C58.1416 32.512 58.5896 31.712 58.5896 30.784C58.5896 29.856 58.1416 29.056 57.1496 29.056H42.7816ZM42.4616 12.416C42.1416 12.416 41.9816 12.256 41.9816 11.936V10.368H54.0136V11.936C54.0136 12.256 53.8536 12.416 53.5336 12.416H42.4616Z" fill="white"/>
<path d="M75.7146 10.528C71.4586 10.528 68.8346 12.48 68.8346 15.744C68.8346 19.008 71.4586 20.96 75.7146 20.96C79.9706 20.96 82.5946 19.008 82.5946 15.744C82.5946 12.48 79.9706 10.528 75.7146 10.528ZM68.4826 5.92002C67.4906 5.92002 67.0426 6.72002 67.0426 7.64802C67.0426 8.54402 67.4906 9.34402 68.4826 9.34402H82.6266C83.6186 9.34402 84.0666 8.54402 84.0666 7.64802C84.0666 6.72002 83.6186 5.92002 82.6266 5.92002H77.7626V4.35202C77.7626 3.16802 76.7706 2.62402 75.7146 2.62402C74.6586 2.62402 73.6666 3.16802 73.6666 4.35202V5.92002H68.4826ZM75.7146 17.856C73.5386 17.856 72.5146 16.96 72.5146 15.744C72.5146 14.528 73.5386 13.632 75.7146 13.632C77.8906 13.632 78.9146 14.528 78.9146 15.744C78.9146 16.96 77.8906 17.856 75.7146 17.856ZM91.4906 4.64002C91.4906 3.48802 90.5306 2.94402 89.5066 2.94402C88.4506 2.94402 87.4906 3.48802 87.4906 4.64002V10.144H84.8666C83.9066 10.144 83.5226 10.912 83.5226 11.808C83.5226 12.736 83.9066 13.504 84.8666 13.504H87.4906V15.456H85.0266C84.0666 15.456 83.6826 16.224 83.6826 17.12C83.6826 18.048 84.0666 18.816 85.0266 18.816H87.4906V20.288C87.4906 21.44 88.4506 21.984 89.5066 21.984C90.5306 21.984 91.4906 21.44 91.4906 20.288V4.64002ZM72.3866 27.616C72.3866 31.488 76.0346 33.184 81.9866 33.184C87.9386 33.184 91.5866 31.488 91.5866 27.616C91.5866 23.744 87.9386 22.048 81.9866 22.048C76.0346 22.048 72.3866 23.744 72.3866 27.616ZM87.5546 27.616C87.5546 29.056 85.9866 29.984 81.9866 29.984C77.9866 29.984 76.4186 29.056 76.4186 27.616C76.4186 26.176 77.9866 25.248 81.9866 25.248C85.9866 25.248 87.5546 26.176 87.5546 27.616Z" fill="white"/>
<path fill-rule="evenodd" clip-rule="evenodd" d="M2.78165 19.1488L2.79319 19.1418C7.27387 16.4272 9.23626 15.0544 10.1677 14.0111C10.5501 13.5827 10.6853 13.2831 10.7622 12.9933C10.8598 12.6254 10.9006 12.1361 10.9006 11.2V11.108H5.11259C3.85246 11.108 2.73997 10.5553 2.01756 9.58796C1.36552 8.7149 1.17259 7.70287 1.17259 6.88002C1.17259 6.05658 1.35861 5.0375 2.00859 4.15617C2.73199 3.17529 3.85021 2.62002 5.11259 2.62002H14.7446C15.8756 2.62002 17.4425 2.75993 18.6148 3.89907C19.808 5.05847 19.9646 6.63417 19.9646 7.77602V11.328C19.9646 14.3297 19.5414 16.8249 17.4261 19.3409C15.5362 21.5888 12.3699 23.7393 7.56935 26.6765L7.56205 26.681C5.1458 28.148 2.67306 26.7037 1.68847 25.2268C1.16243 24.4377 0.829522 23.4097 0.892982 22.34C0.960864 21.1957 1.50606 19.9406 2.77019 19.1559L2.78165 19.1488ZM4.08859 21.28C12.8566 15.968 13.4006 15.008 13.4006 11.2V9.34402C13.4006 8.80002 13.2086 8.60802 12.6646 8.60802H5.11259C4.12059 8.60802 3.67259 7.80802 3.67259 6.88002C3.67259 5.92002 4.12059 5.12002 5.11259 5.12002H14.7446C16.7926 5.12002 17.4646 5.76002 17.4646 7.77602V11.328C17.4646 16.736 15.9926 18.592 6.26459 24.544C5.36859 25.088 4.28059 24.608 3.76859 23.84C3.25659 23.072 3.16059 21.856 4.08859 21.28ZM27.5032 1.35402C28.5208 2.10668 29.1486 3.28262 29.1486 4.67202V29.184C29.1486 30.5734 28.5208 31.7494 27.5032 32.502C26.5753 33.1882 25.4869 33.412 24.5686 33.412C23.6528 33.412 22.5716 33.1818 21.652 32.4946C20.6462 31.7429 20.0206 30.5715 20.0206 29.184V4.67202C20.0206 3.28453 20.6462 2.11318 21.652 1.3615C22.5716 0.674222 23.6528 0.444023 24.5686 0.444023C25.4869 0.444023 26.5753 0.667814 27.5032 1.35402ZM35.9016 22.016C34.9096 22.016 34.4616 21.216 34.4616 20.288C34.4616 19.392 34.9096 18.592 35.9016 18.592H45.9816V15.744H40.7016C38.6536 15.744 37.9816 15.104 37.9816 13.088V5.28002C37.9816 4.16002 38.9736 3.61602 39.9656 3.61602C40.9896 3.61602 41.9816 4.16002 41.9816 5.28002V7.04002H54.0136V5.28002C54.0136 4.16002 55.0056 3.61602 55.9976 3.61602C57.0216 3.61602 58.0136 4.16002 58.0136 5.28002V13.088C58.0136 15.104 57.3416 15.744 55.2936 15.744H50.0136V18.592H60.0936C61.0856 18.592 61.5336 19.392 61.5336 20.288C61.5336 21.216 61.0856 22.016 60.0936 22.016H35.9016ZM35.4661 24.4936C34.3867 24.3811 33.4445 23.8502 32.8066 22.996C32.1545 22.1229 31.9616 21.1109 31.9616 20.288C31.9616 19.465 32.162 18.4601 32.8157 17.5959C33.537 16.6423 34.6436 16.092 35.9016 16.092H36.1519C35.5734 15.0907 35.4816 13.9622 35.4816 13.088V5.28002C35.4816 3.87857 36.1456 2.73725 37.112 2.02028C38.0023 1.35971 39.0533 1.11602 39.9656 1.11602C40.8795 1.11602 41.9377 1.35261 42.8369 2.01269C43.6371 2.60003 44.2286 3.47342 44.4175 4.54002H51.5777C51.7659 3.47629 52.3539 2.60646 53.144 2.02028C54.0343 1.35971 55.0853 1.11602 55.9976 1.11602C56.9115 1.11602 57.9697 1.35261 58.8689 2.01269C59.8472 2.73077 60.5136 3.87644 60.5136 5.28002V13.088C60.5136 13.9622 60.4218 15.0907 59.8433 16.092H60.0936C61.3516 16.092 62.4582 16.6423 63.1794 17.5959C63.8332 18.4601 64.0336 19.465 64.0336 20.288C64.0336 21.1109 63.8407 22.1229 63.1886 22.996C62.4662 23.9633 61.3537 24.516 60.0936 24.516H44.5004C44.5302 24.7222 44.5456 24.9344 44.5456 25.152V26.556H57.1496C58.4097 26.556 59.5222 27.1088 60.2446 28.0761C60.8967 28.9491 61.0896 29.9612 61.0896 30.784C61.0896 31.6069 60.8967 32.6189 60.2446 33.492C59.5222 34.4593 58.4097 35.012 57.1496 35.012H40.6376C39.5065 35.012 37.9397 34.8721 36.7674 33.733C35.5742 32.5736 35.4176 30.9979 35.4176 29.856V25.152C35.4176 24.9266 35.4341 24.7069 35.4661 24.4936ZM38.0301 24.516C37.9575 24.7028 37.9176 24.9145 37.9176 25.152V29.856C37.9176 31.872 38.5896 32.512 40.6376 32.512H57.1496C58.1416 32.512 58.5896 31.712 58.5896 30.784C58.5896 29.856 58.1416 29.056 57.1496 29.056H42.7816C42.2376 29.056 42.0456 28.864 42.0456 28.32V25.152C42.0456 24.9145 42.0057 24.7028 41.9333 24.516C41.6451 23.7717 40.8418 23.424 39.9976 23.424C39.1278 23.424 38.3194 23.7717 38.0301 24.516ZM41.9816 10.368V11.936C41.9816 12.256 42.1416 12.416 42.4616 12.416H53.5336C53.8536 12.416 54.0136 12.256 54.0136 11.936V10.368H41.9816ZM68.4826 9.34402C67.4906 9.34402 67.0426 8.54402 67.0426 7.64802C67.0426 6.72002 67.4906 5.92002 68.4826 5.92002H73.6666V4.35202C73.6666 3.16802 74.6586 2.62402 75.7146 2.62402C76.7706 2.62402 77.7626 3.16802 77.7626 4.35202V5.92002H82.6266C83.6186 5.92002 84.0666 6.72002 84.0666 7.64802C84.0666 7.67304 84.0662 7.69799 84.0655 7.72284C84.0411 8.58808 83.5909 9.34402 82.6266 9.34402H68.4826ZM67.4796 11.7211C66.6426 11.5092 65.9187 11.0303 65.3967 10.3402C64.743 9.4759 64.5426 8.47101 64.5426 7.64802C64.5426 6.82518 64.7355 5.81315 65.3876 4.94008C66.11 3.97278 67.2225 3.42002 68.4826 3.42002H71.2654C71.4787 2.44151 72.0265 1.61806 72.798 1.0415C73.7176 0.354222 74.7988 0.124023 75.7146 0.124023C76.6304 0.124023 77.7116 0.354222 78.6312 1.0415C79.4027 1.61806 79.9504 2.44151 80.1638 3.42002H82.6266C83.5259 3.42002 84.35 3.70155 85.0108 4.21437C85.1242 3.03432 85.7076 2.03368 86.5992 1.3626C87.5125 0.675119 88.5891 0.444023 89.5066 0.444023C90.4224 0.444023 91.4917 0.682084 92.3964 1.37045C93.3811 2.11968 93.9906 3.27735 93.9906 4.64002V20.288C93.9906 21.501 93.5076 22.5516 92.707 23.2962C93.5902 24.4712 94.0866 25.9215 94.0866 27.616C94.0866 30.538 92.6108 32.7335 90.2205 34.0441C88.0212 35.25 85.1235 35.684 81.9866 35.684C78.8497 35.684 75.952 35.25 73.7526 34.0441C71.3623 32.7335 69.8866 30.538 69.8866 27.616C69.8866 25.6988 70.522 24.0943 71.6342 22.8473C70.7365 22.5454 69.9067 22.1252 69.1732 21.572C67.3315 20.1829 66.3346 18.1256 66.3346 15.744C66.3346 14.2463 66.7288 12.8768 67.4796 11.7211ZM70.7709 11.844C69.5246 12.7415 68.8346 14.0703 68.8346 15.744C68.8346 18.6428 70.9042 20.5067 74.3485 20.8876C74.7825 20.9356 75.2383 20.96 75.7146 20.96C77.8461 20.96 79.5683 20.4704 80.7565 19.5715C81.03 19.3647 81.2752 19.1361 81.4905 18.8869C81.928 18.3806 82.2426 17.7889 82.4214 17.12C82.5357 16.6922 82.5946 16.2328 82.5946 15.744C82.5946 15.5787 82.5879 15.4167 82.5745 15.2582C82.5388 14.8333 82.4556 14.4331 82.3274 14.0594C82.0702 13.3093 81.6318 12.6654 81.0323 12.1409C80.9139 12.0372 80.7892 11.9383 80.6583 11.844C79.4743 10.9914 77.7881 10.528 75.7146 10.528C73.6411 10.528 71.9549 10.9914 70.7709 11.844ZM83.5232 11.7465C83.5228 11.7669 83.5226 11.7874 83.5226 11.808C83.5226 12.328 83.6431 12.7977 83.918 13.1102C84.1175 13.3371 84.3984 13.4812 84.7735 13.5015C84.8039 13.5032 84.8349 13.504 84.8666 13.504H87.4906V15.456H85.0266C84.9714 15.456 84.918 15.4586 84.8666 15.4635C84.584 15.4908 84.3579 15.591 84.182 15.744C84.1228 15.7956 84.0693 15.8531 84.0212 15.9159C83.7865 16.2226 83.6826 16.654 83.6826 17.12C83.6826 17.8572 83.9249 18.4934 84.5058 18.7239C84.6562 18.7835 84.8292 18.816 85.0266 18.816H87.4906V20.288C87.4906 21.44 88.4506 21.984 89.5066 21.984C90.0117 21.984 90.5012 21.8517 90.8676 21.5793C91.244 21.2995 91.4906 20.8718 91.4906 20.288V4.64002C91.4906 3.48802 90.5306 2.94402 89.5066 2.94402C88.4506 2.94402 87.4906 3.48802 87.4906 4.64002V10.144H84.8666C84.1288 10.144 83.7312 10.5976 83.5867 11.2143C83.5475 11.3816 83.5269 11.561 83.5232 11.7465ZM85.4893 22.2875C84.4369 22.1262 83.2649 22.048 81.9866 22.048C81.8371 22.048 81.689 22.0491 81.5424 22.0512C79.1908 22.0857 77.2189 22.3975 75.7146 23.0182C75.4079 23.1447 75.1206 23.2841 74.8535 23.4366C73.2615 24.3454 72.3866 25.7198 72.3866 27.616C72.3866 31.488 76.0346 33.184 81.9866 33.184C87.9386 33.184 91.5866 31.488 91.5866 27.616C91.5866 26.304 91.1678 25.2419 90.3824 24.4109C90.1282 24.142 89.8357 23.8973 89.5066 23.6762C88.4957 22.997 87.1395 22.5402 85.4893 22.2875ZM24.5686 2.94402C25.6566 2.94402 26.6486 3.48802 26.6486 4.67202V29.184C26.6486 30.368 25.6566 30.912 24.5686 30.912C23.5126 30.912 22.5206 30.368 22.5206 29.184V4.67202C22.5206 3.48802 23.5126 2.94402 24.5686 2.94402ZM72.5146 15.744C72.5146 16.96 73.5386 17.856 75.7146 17.856C77.8906 17.856 78.9146 16.96 78.9146 15.744C78.9146 14.528 77.8906 13.632 75.7146 13.632C73.5386 13.632 72.5146 14.528 72.5146 15.744ZM81.9866 29.984C85.9866 29.984 87.5546 29.056 87.5546 27.616C87.5546 26.176 85.9866 25.248 81.9866 25.248C77.9866 25.248 76.4186 26.176 76.4186 27.616C76.4186 29.056 77.9866 29.984 81.9866 29.984Z" fill="#FF6559"/>
</svg>
