<svg width="96" height="36" viewBox="0 0 96 36" fill="none" xmlns="http://www.w3.org/2000/svg">
<path d="M13.9846 5.69602C13.9846 4.48002 12.9926 3.93602 11.9046 3.93602C10.8166 3.93602 9.82464 4.48002 9.82464 5.69602V8.38402C9.82464 10.336 9.24864 11.648 7.87264 12.832C6.46464 14.016 5.24864 14.976 3.84064 16C2.84864 16.704 3.00864 17.824 3.55264 18.592C4.03264 19.264 5.12064 19.776 6.04864 19.104C7.29664 18.208 8.48064 17.28 9.72864 16.224C11.2326 14.976 11.7766 14.304 11.9366 13.568H11.9686C12.1286 14.208 12.5766 14.752 14.0806 16C15.3286 17.056 16.5126 17.984 17.2806 18.528C18.2406 19.2 19.2966 18.688 19.7766 18.016C20.3526 17.216 20.4166 16.192 19.5206 15.552C18.5606 14.848 17.3446 13.888 15.9366 12.704C14.5606 11.52 13.9846 10.208 13.9846 8.25602V5.69602ZM26.2726 9.82402V4.67202C26.2726 3.48802 25.2806 2.94402 24.2246 2.94402C23.1686 2.94402 22.1766 3.48802 22.1766 4.67202V18.848C22.1766 20.032 23.1686 20.576 24.2246 20.576C25.2806 20.576 26.2726 20.032 26.2726 18.848V13.376H29.2806C30.3046 13.376 30.7526 12.576 30.7526 11.584C30.7526 10.624 30.3046 9.82402 29.2806 9.82402H26.2726ZM7.48864 26.976C7.48864 31.136 11.0406 33.184 16.9286 33.184C22.8166 33.184 26.3686 31.136 26.3686 26.976C26.3686 22.816 22.8166 20.768 16.9286 20.768C11.0406 20.768 7.48864 22.816 7.48864 26.976ZM22.3046 26.976C22.3046 28.736 20.8326 29.92 16.9286 29.92C13.0246 29.92 11.5526 28.736 11.5526 26.976C11.5526 25.216 13.0246 24.032 16.9286 24.032C20.8326 24.032 22.3046 25.216 22.3046 26.976Z" fill="white"/>
<path d="M40.7416 10.944C40.7416 13.504 40.2296 15.2 38.8856 16.864C37.8936 18.112 36.8376 19.264 35.6856 20.512C34.9496 21.312 35.1416 22.464 35.8776 23.168C36.5176 23.808 37.7336 23.936 38.4376 23.2C39.3656 22.208 40.2616 21.216 41.0296 20.288C42.3736 18.688 42.6616 17.952 42.7896 17.216H42.8216C42.9496 17.856 43.2376 18.56 44.5496 20.128C45.3176 21.056 46.2136 22.048 46.7256 22.592C47.4296 23.328 48.5816 23.264 49.2856 22.624C49.9576 22.016 50.1816 20.832 49.4776 20.064C48.7416 19.264 47.6856 18.112 46.6936 16.864C45.3496 15.2 44.8376 13.504 44.8376 10.944V6.36802C44.8376 5.18402 43.8456 4.64002 42.7896 4.64002C41.7336 4.64002 40.7416 5.18402 40.7416 6.36802V10.944ZM57.1256 29.312C57.1256 30.4 58.0536 30.912 59.0136 30.912C59.9736 30.912 60.9016 30.4 60.9016 29.312V4.54402C60.9016 3.45602 59.9736 2.94402 59.0136 2.94402C58.0536 2.94402 57.1256 3.45602 57.1256 4.54402V29.312ZM51.3016 11.296H48.9336C47.9416 11.296 47.4936 12.096 47.4936 13.056C47.4936 14.016 47.9416 14.816 48.9336 14.816H51.3016V27.968C51.3016 29.056 52.2296 29.568 53.1896 29.568C54.1176 29.568 55.0456 29.056 55.0456 27.968V4.86402C55.0456 3.77602 54.1176 3.26402 53.1896 3.26402C52.2296 3.26402 51.3016 3.77602 51.3016 4.86402V11.296Z" fill="white"/>
<path d="M76.7146 10.528C72.4586 10.528 69.8346 12.48 69.8346 15.744C69.8346 19.008 72.4586 20.96 76.7146 20.96C80.9706 20.96 83.5946 19.008 83.5946 15.744C83.5946 12.48 80.9706 10.528 76.7146 10.528ZM69.4826 5.92002C68.4906 5.92002 68.0426 6.72002 68.0426 7.64802C68.0426 8.54402 68.4906 9.34402 69.4826 9.34402H83.6266C84.6186 9.34402 85.0666 8.54402 85.0666 7.64802C85.0666 6.72002 84.6186 5.92002 83.6266 5.92002H78.7626V4.35202C78.7626 3.16802 77.7706 2.62402 76.7146 2.62402C75.6586 2.62402 74.6666 3.16802 74.6666 4.35202V5.92002H69.4826ZM76.7146 17.856C74.5386 17.856 73.5146 16.96 73.5146 15.744C73.5146 14.528 74.5386 13.632 76.7146 13.632C78.8906 13.632 79.9146 14.528 79.9146 15.744C79.9146 16.96 78.8906 17.856 76.7146 17.856ZM92.4906 4.64002C92.4906 3.48802 91.5306 2.94402 90.5066 2.94402C89.4506 2.94402 88.4906 3.48802 88.4906 4.64002V10.144H85.8666C84.9066 10.144 84.5226 10.912 84.5226 11.808C84.5226 12.736 84.9066 13.504 85.8666 13.504H88.4906V15.456H86.0266C85.0666 15.456 84.6826 16.224 84.6826 17.12C84.6826 18.048 85.0666 18.816 86.0266 18.816H88.4906V20.288C88.4906 21.44 89.4506 21.984 90.5066 21.984C91.5306 21.984 92.4906 21.44 92.4906 20.288V4.64002ZM73.3866 27.616C73.3866 31.488 77.0346 33.184 82.9866 33.184C88.9386 33.184 92.5866 31.488 92.5866 27.616C92.5866 23.744 88.9386 22.048 82.9866 22.048C77.0346 22.048 73.3866 23.744 73.3866 27.616ZM88.5546 27.616C88.5546 29.056 86.9866 29.984 82.9866 29.984C78.9866 29.984 77.4186 29.056 77.4186 27.616C77.4186 26.176 78.9866 25.248 82.9866 25.248C86.9866 25.248 88.5546 26.176 88.5546 27.616Z" fill="white"/>
<path fill-rule="evenodd" clip-rule="evenodd" d="M10.2842 15.7508C10.1154 15.8992 9.93068 16.0564 9.72867 16.224C8.48067 17.28 7.29667 18.208 6.04867 19.104C5.12067 19.776 4.03267 19.264 3.55267 18.592C3.00867 17.824 2.84867 16.704 3.84067 16C5.24867 14.976 6.46467 14.016 7.87267 12.832C9.24867 11.648 9.82467 10.336 9.82467 8.38402V5.69602C9.82467 4.48002 10.8167 3.93602 11.9047 3.93602C12.9927 3.93602 13.9847 4.48002 13.9847 5.69602V8.25602C13.9847 10.208 14.5607 11.52 15.9367 12.704C17.3447 13.888 18.5607 14.848 19.5207 15.552C19.5763 15.5918 19.6283 15.633 19.6767 15.6756C20.4067 16.3184 20.3169 17.2657 19.7767 18.016C19.7457 18.0594 19.7123 18.1021 19.6767 18.1439C19.602 18.2316 19.5175 18.3151 19.4249 18.3919C18.8781 18.8455 18.0486 19.0656 17.2807 18.528C17.1714 18.4506 17.0537 18.3655 16.9287 18.2733C16.9263 18.2715 16.9239 18.2698 16.9215 18.268C16.1681 17.7123 15.1478 16.9029 14.0807 16C13.9491 15.8908 13.8256 15.787 13.7096 15.6881C12.5056 14.6604 12.1179 14.1563 11.9705 13.5754C11.9699 13.5729 11.9693 13.5705 11.9687 13.568H11.9367C11.9361 13.5708 11.9354 13.5737 11.9348 13.5765C11.7944 14.2104 11.3671 14.7986 10.2842 15.7508ZM12.0321 17.5444C11.8077 17.7434 11.5742 17.9412 11.3344 18.1402C10.5941 18.7664 9.87268 19.3515 9.14605 19.9133C10.3462 19.2477 11.7323 18.8098 13.2397 18.5543C12.9882 18.3474 12.7324 18.134 12.475 17.9163C12.3239 17.7908 12.1761 17.6672 12.0321 17.5444ZM16.166 20.7799C10.7353 20.9521 7.48867 22.9989 7.48867 26.976C7.48867 31.136 11.0407 33.184 16.9287 33.184C22.8167 33.184 26.3687 31.136 26.3687 26.976C26.3687 25.3411 25.82 24.0324 24.7966 23.046C24.62 22.8758 24.4292 22.7152 24.2247 22.5641C23.2237 21.8248 21.893 21.3151 20.2771 21.0324C20.1696 21.0136 20.0607 20.9958 19.9507 20.979C19.0285 20.8382 18.0186 20.768 16.9287 20.768C16.6699 20.768 16.4156 20.772 16.166 20.7799ZM22.1773 18.8982C22.2049 20.0474 23.1837 20.576 24.2247 20.576C24.6378 20.576 25.0411 20.4928 25.3791 20.3205C25.905 20.0524 26.2727 19.5688 26.2727 18.848V13.376H29.2807C30.3047 13.376 30.7527 12.576 30.7527 11.584C30.7527 10.624 30.3047 9.82402 29.2807 9.82402H26.2727V4.67202C26.2727 3.48802 25.2807 2.94402 24.2247 2.94402C23.1687 2.94402 22.1767 3.48802 22.1767 4.67202V18.848C22.1767 18.8576 22.1767 18.8671 22.1769 18.8766C22.177 18.8838 22.1771 18.891 22.1773 18.8982ZM19.6767 12.5282V4.67202C19.6767 3.28453 20.3023 2.11318 21.308 1.3615C22.2276 0.674222 23.3088 0.444023 24.2247 0.444023C25.1405 0.444023 26.2217 0.674222 27.1413 1.3615C28.1471 2.11318 28.7727 3.28453 28.7727 4.67202V7.32402H29.2807C30.5305 7.32402 31.6599 7.8563 32.4007 8.84402C33.0667 9.73213 33.2527 10.7611 33.2527 11.584C33.2527 12.4081 33.0733 13.4441 32.4096 14.3401C31.6679 15.3414 30.5326 15.876 29.2807 15.876H28.7727V18.848C28.7727 20.1774 28.1984 21.3083 27.2657 22.0619C28.3078 23.4029 28.8687 25.0668 28.8687 26.976C28.8687 29.9044 27.5493 32.2556 25.1975 33.75C23.0032 35.1445 20.0961 35.684 16.9287 35.684C13.7613 35.684 10.8541 35.1445 8.65982 33.75C6.30805 32.2556 4.98867 29.9044 4.98867 26.976C4.98867 24.6774 5.80163 22.7344 7.28873 21.2822C6.18652 21.9797 4.96856 22.048 3.94586 21.7558C2.92763 21.4649 2.07069 20.8184 1.51833 20.0451L1.51259 20.0371C1.00184 19.316 0.583145 18.3171 0.622151 17.1859C0.664691 15.9522 1.25338 14.7769 2.37968 13.9713C3.72581 12.992 4.89039 12.0731 6.25186 10.9285C6.70812 10.5341 6.93867 10.2029 7.07544 9.89131C7.21756 9.56749 7.32467 9.11298 7.32467 8.38402V5.69602C7.32467 4.31463 7.93243 3.1282 8.95667 2.36002C9.89016 1.6599 10.9866 1.43602 11.9047 1.43602C12.8228 1.43602 13.9192 1.6599 14.8527 2.36002C15.8769 3.1282 16.4847 4.31463 16.4847 5.69602V8.25602C16.4847 8.98498 16.5918 9.43949 16.7339 9.76331C16.8707 10.0749 17.1012 10.4061 17.5574 10.8005C18.3332 11.4527 19.0432 12.0301 19.6767 12.5282ZM19.7746 26.976C19.4811 27.1458 18.6767 27.42 16.9287 27.42C15.1806 27.42 14.3762 27.1458 14.0827 26.976C14.3762 26.8062 15.1806 26.532 16.9287 26.532C18.6767 26.532 19.4811 26.8062 19.7746 26.976ZM36.9347 15.3008L36.9408 15.2932C37.8452 14.1734 38.2417 13.0749 38.2417 10.944V6.36802C38.2417 4.98053 38.8673 3.80918 39.873 3.0575C40.7926 2.37022 41.8738 2.14002 42.7897 2.14002C43.7055 2.14002 44.7867 2.37022 45.7063 3.0575C46.7121 3.80918 47.3377 4.98053 47.3377 6.36802V9.1225C47.7872 8.9254 48.2812 8.81415 48.8017 8.79806V4.86402C48.8017 3.51108 49.422 2.37877 50.3857 1.65602C51.2684 0.993964 52.3056 0.764023 53.1897 0.764023C54.0447 0.764023 55.0367 0.986596 55.8913 1.60127C55.9926 1.50763 56.0989 1.41912 56.2097 1.33602C57.0924 0.673964 58.1296 0.444023 59.0137 0.444023C59.8977 0.444023 60.9349 0.673964 61.8177 1.33602C62.7813 2.05877 63.4017 3.19108 63.4017 4.54402V29.312C63.4017 30.665 62.7813 31.7973 61.8177 32.52C60.9349 33.1821 59.8977 33.412 59.0137 33.412C58.1296 33.412 57.0924 33.1821 56.2097 32.52C55.8603 32.258 55.556 31.9421 55.3101 31.5814C54.6068 31.9326 53.8566 32.068 53.1897 32.068C52.3056 32.068 51.2684 31.8381 50.3857 31.176C49.422 30.4533 48.8017 29.321 48.8017 27.968V25.5437C47.4802 25.7973 46.0199 25.471 44.9191 24.3201L44.9121 24.3128L44.9052 24.3054C44.4162 23.7859 43.6058 22.8909 42.8567 22.001C42.0661 22.949 41.1688 23.94 40.2633 24.9079L40.2539 24.9181L40.2443 24.9281C38.4082 26.8477 35.5837 26.3871 34.1306 24.9563C32.6629 23.535 31.9868 20.84 33.8458 18.8194L33.8487 18.8163C35.0059 17.5627 36.0019 16.4742 36.9286 15.3084L36.9347 15.3008ZM35.8777 23.168C36.5177 23.808 37.7337 23.936 38.4377 23.2C39.3657 22.208 40.2617 21.216 41.0297 20.288C41.1265 20.1727 41.2179 20.0619 41.3042 19.9552C42.4108 18.5864 42.6692 17.9034 42.7885 17.2227C42.7889 17.2204 42.7893 17.2182 42.7897 17.216H42.8217C42.8221 17.2179 42.8224 17.2199 42.8228 17.2218C42.9459 17.8328 43.217 18.5043 44.3865 19.9311C44.4391 19.9952 44.4934 20.0608 44.5497 20.128C45.3177 21.056 46.2137 22.048 46.7257 22.592C47.2847 23.1765 48.1263 23.2565 48.8017 22.9441C48.9768 22.8632 49.1407 22.7558 49.2857 22.624C49.9577 22.016 50.1817 20.832 49.4777 20.064C49.2741 19.8428 49.0461 19.5946 48.8017 19.3249C48.1624 18.6194 47.4113 17.7669 46.6937 16.864C46.5274 16.6582 46.3739 16.4519 46.2325 16.2435C45.5841 15.2878 45.1906 14.2888 44.9938 13.0944C44.8866 12.4437 44.8377 11.7351 44.8377 10.944V6.36802C44.8377 5.18402 43.8457 4.64002 42.7897 4.64002C41.7337 4.64002 40.7417 5.18402 40.7417 6.36802V10.944C40.7417 13.504 40.2297 15.2 38.8857 16.864C37.8937 18.112 36.8377 19.264 35.6857 20.512C34.9497 21.312 35.1417 22.464 35.8777 23.168ZM51.3017 27.968C51.3017 29.056 52.2297 29.568 53.1897 29.568C53.7291 29.568 54.2685 29.395 54.6257 29.0365C54.883 28.7782 55.0457 28.4236 55.0457 27.968V4.86402C55.0457 4.75118 55.0357 4.64454 55.0168 4.54402C54.9649 4.26876 54.846 4.03943 54.6813 3.85455C54.3261 3.45597 53.7579 3.26402 53.1897 3.26402C52.2297 3.26402 51.3017 3.77602 51.3017 4.86402V11.296H48.9337C47.9969 11.296 47.5452 12.0095 47.4978 12.8974C47.4951 12.9497 47.4937 13.0026 47.4937 13.056C47.4937 13.7054 47.6986 14.2815 48.1383 14.5864C48.3486 14.7322 48.6127 14.816 48.9337 14.816H51.3017V27.968ZM57.1688 29.6991C57.3621 30.5219 58.1757 30.912 59.0137 30.912C59.9737 30.912 60.9017 30.4 60.9017 29.312V4.54402C60.9017 3.45602 59.9737 2.94402 59.0137 2.94402C58.358 2.94402 57.7173 3.18284 57.377 3.68084C57.219 3.91203 57.1257 4.19908 57.1257 4.54402V29.312C57.1257 29.4503 57.1407 29.5793 57.1688 29.6991ZM69.4827 9.34402C68.4907 9.34402 68.0427 8.54402 68.0427 7.64802C68.0427 6.72002 68.4907 5.92002 69.4827 5.92002H74.6667V4.35202C74.6667 3.16802 75.6587 2.62402 76.7147 2.62402C77.7707 2.62402 78.7627 3.16802 78.7627 4.35202V5.92002H83.6267C84.6187 5.92002 85.0667 6.72002 85.0667 7.64802C85.0667 7.67304 85.0663 7.69799 85.0656 7.72284C85.0412 8.58808 84.591 9.34402 83.6267 9.34402H69.4827ZM68.4796 11.7211C67.6427 11.5092 66.9188 11.0303 66.3968 10.3402C65.7431 9.4759 65.5427 8.47101 65.5427 7.64802C65.5427 6.82518 65.7356 5.81315 66.3876 4.94008C67.11 3.97278 68.2225 3.42002 69.4827 3.42002H72.2654C72.4788 2.44151 73.0266 1.61806 73.798 1.0415C74.7176 0.354222 75.7988 0.124023 76.7147 0.124023C77.6305 0.124023 78.7117 0.354222 79.6313 1.0415C80.4027 1.61806 80.9505 2.44151 81.1639 3.42002H83.6267C84.526 3.42002 85.3501 3.70155 86.0109 4.21437C86.1243 3.03432 86.7077 2.03368 87.5992 1.3626C88.5126 0.675119 89.5891 0.444023 90.5067 0.444023C91.4225 0.444023 92.4918 0.682084 93.3965 1.37045C94.3812 2.11968 94.9907 3.27735 94.9907 4.64002V20.288C94.9907 21.501 94.5077 22.5516 93.7071 23.2962C94.5903 24.4712 95.0867 25.9215 95.0867 27.616C95.0867 30.538 93.6109 32.7335 91.2206 34.0441C89.0213 35.25 86.1236 35.684 82.9867 35.684C79.8497 35.684 76.952 35.25 74.7527 34.0441C72.3624 32.7335 70.8867 30.538 70.8867 27.616C70.8867 25.6988 71.522 24.0943 72.6342 22.8473C71.7366 22.5454 70.9067 22.1252 70.1733 21.572C68.3315 20.1829 67.3347 18.1256 67.3347 15.744C67.3347 14.2463 67.7289 12.8768 68.4796 11.7211ZM71.7709 11.844C70.5247 12.7415 69.8347 14.0703 69.8347 15.744C69.8347 18.6428 71.9042 20.5067 75.3486 20.8876C75.7826 20.9356 76.2384 20.96 76.7147 20.96C78.8462 20.96 80.5684 20.4704 81.7566 19.5715C82.0301 19.3647 82.2752 19.1361 82.4906 18.8869C82.9281 18.3806 83.2426 17.7889 83.4214 17.12C83.5358 16.6922 83.5947 16.2328 83.5947 15.744C83.5947 15.5787 83.5879 15.4167 83.5746 15.2582C83.5388 14.8333 83.4556 14.4331 83.3275 14.0594C83.0702 13.3093 82.6319 12.6654 82.0324 12.1409C81.914 12.0372 81.7892 11.9383 81.6584 11.844C80.4743 10.9914 78.7882 10.528 76.7147 10.528C74.6411 10.528 72.955 10.9914 71.7709 11.844ZM84.5233 11.7465C84.5229 11.7669 84.5227 11.7874 84.5227 11.808C84.5227 12.328 84.6432 12.7977 84.9181 13.1102C85.1176 13.3371 85.3984 13.4812 85.7735 13.5015C85.804 13.5032 85.835 13.504 85.8667 13.504H88.4907V15.456H86.0267C85.9714 15.456 85.9181 15.4586 85.8667 15.4635C85.5841 15.4908 85.3579 15.591 85.1821 15.744C85.1229 15.7956 85.0693 15.8531 85.0213 15.9159C84.7865 16.2226 84.6827 16.654 84.6827 17.12C84.6827 17.8572 84.925 18.4934 85.5059 18.7239C85.6562 18.7835 85.8293 18.816 86.0267 18.816H88.4907V20.288C88.4907 21.44 89.4507 21.984 90.5067 21.984C91.0117 21.984 91.5012 21.8517 91.8677 21.5793C92.2441 21.2995 92.4907 20.8718 92.4907 20.288V4.64002C92.4907 3.48802 91.5307 2.94402 90.5067 2.94402C89.4507 2.94402 88.4907 3.48802 88.4907 4.64002V10.144H85.8667C85.1289 10.144 84.7313 10.5976 84.5868 11.2143C84.5476 11.3816 84.527 11.561 84.5233 11.7465ZM86.4894 22.2875C85.4369 22.1262 84.2649 22.048 82.9867 22.048C82.8371 22.048 82.6891 22.0491 82.5425 22.0512C80.1909 22.0857 78.219 22.3975 76.7147 23.0182C76.408 23.1447 76.1207 23.2841 75.8536 23.4366C74.2616 24.3454 73.3867 25.7198 73.3867 27.616C73.3867 31.488 77.0347 33.184 82.9867 33.184C88.9387 33.184 92.5867 31.488 92.5867 27.616C92.5867 26.304 92.1678 25.2419 91.3825 24.4109C91.1283 24.142 90.8358 23.8973 90.5067 23.6762C89.4958 22.997 88.1396 22.5402 86.4894 22.2875ZM16.9287 29.92C20.8327 29.92 22.3047 28.736 22.3047 26.976C22.3047 25.216 20.8327 24.032 16.9287 24.032C13.0247 24.032 11.5527 25.216 11.5527 26.976C11.5527 28.736 13.0247 29.92 16.9287 29.92ZM73.5147 15.744C73.5147 16.96 74.5387 17.856 76.7147 17.856C78.8907 17.856 79.9147 16.96 79.9147 15.744C79.9147 14.528 78.8907 13.632 76.7147 13.632C74.5387 13.632 73.5147 14.528 73.5147 15.744ZM82.9867 29.984C86.9867 29.984 88.5547 29.056 88.5547 27.616C88.5547 26.176 86.9867 25.248 82.9867 25.248C78.9867 25.248 77.4187 26.176 77.4187 27.616C77.4187 29.056 78.9867 29.984 82.9867 29.984Z" fill="#FF6559"/>
</svg>
