<svg width="18" height="18" viewBox="0 0 18 18" fill="none" xmlns="http://www.w3.org/2000/svg">
<path d="M12.7213 4.62646L12.7201 4.62538C12.4793 4.41237 12.2224 4.22116 11.9525 4.05301C11.1215 3.53531 10.1668 3.23608 9.17807 3.19159C7.86765 3.13263 6.57662 3.52471 5.52031 4.30245C4.46399 5.08018 3.70624 6.19656 3.37343 7.46539C3.04062 8.73421 3.15288 10.0788 3.69147 11.2749C4.23007 12.4709 5.16244 13.4462 6.3331 14.038C7.50376 14.6298 8.84193 14.8024 10.1244 14.527C11.4069 14.2515 12.5562 13.5447 13.3807 12.5244C14.0027 11.7546 14.4114 10.8415 14.5746 9.87606C14.6277 9.56196 14.6548 9.24232 14.6548 8.92031C14.6548 8.92031 14.6548 8.44243 14.1769 8.44243C13.6991 8.44243 13.6991 8.92031 13.6991 8.92031L13.6025 9.87606C13.4503 10.6216 13.1213 11.3247 12.6373 11.9238C11.9503 12.774 10.9925 13.363 9.92374 13.5925C8.85499 13.8221 7.73985 13.6782 6.7643 13.1851C5.78875 12.6919 5.01177 11.8792 4.56295 10.8824C4.11412 9.88571 4.02057 8.76523 4.29791 7.70787C4.57525 6.65052 5.20671 5.72021 6.08697 5.07209C6.96724 4.42398 8.04309 4.09724 9.13511 4.14638C9.90447 4.18099 10.6491 4.4007 11.3082 4.78089L12.0265 5.33624L10.8318 6.53093H13.6991V3.66367L12.7213 4.62646Z" fill="#0089ED"/>
</svg>
